<svg width="182" height="41" viewBox="0 0 182 41" fill="none" xmlns="http://www.w3.org/2000/svg">
<path d="M8.064 7.312V23.272H12.096C12.432 23.272 12.6373 23.216 12.712 23.104C12.824 22.9547 12.88 22.7307 12.88 22.432V8.096C12.88 7.57333 12.6373 7.312 12.152 7.312H8.064ZM15.96 0.199997C17.5653 0.199997 18.76 0.647997 19.544 1.544C20.3653 2.44 20.776 3.63466 20.776 5.128V24.56C20.776 25.344 20.6827 26.072 20.496 26.744C20.3467 27.3787 20.048 27.9387 19.6 28.424C19.152 28.9093 18.5547 29.3013 17.808 29.6C17.0613 29.8613 16.128 29.992 15.008 29.992H8.064V40.8H0V0.199997H15.96Z" fill="white"/>
<path d="M32.0731 7.312V21.312H36.0491C36.5718 21.312 36.8331 21.032 36.8331 20.472V8.152C36.8331 7.592 36.5718 7.312 36.0491 7.312H32.0731ZM44.8411 24.28C44.8411 25.176 44.5238 25.9973 43.8891 26.744C43.2918 27.4907 42.3958 27.864 41.2011 27.864L45.4571 40.8H37.0571L33.1371 27.864H32.0731V40.8H23.9531V0.199997H39.3531C41.2571 0.199997 42.6385 0.68533 43.4971 1.65599C44.3931 2.58933 44.8411 3.85866 44.8411 5.464V24.28Z" fill="white"/>
<path d="M48.2891 0.199997H56.4091V40.8H48.2891V0.199997Z" fill="white"/>
<path d="M67.6694 21.648V40.8H59.7734V0.199997H68.3414L72.7654 17.336L77.1894 0.199997H85.8134V40.8H77.9174V21.648L72.7654 37.888L67.6694 21.648Z" fill="white"/>
<path d="M89.1953 0.199997H104.987L106.387 7.76H97.5393V17.392H104.259V24.392H97.5393V33.24H106.051L104.651 40.8H89.1953V0.199997Z" fill="white"/>
<path d="M122.539 40.8C120.187 40.8 118.544 40.3147 117.611 39.344C116.678 38.3733 116.211 36.768 116.211 34.528V5.184C116.211 3.57866 116.659 2.34666 117.555 1.488C118.488 0.62933 119.627 0.199997 120.971 0.199997H131.667L133.067 7.76H125.283C124.798 7.76 124.555 8.02133 124.555 8.544V32.456C124.555 32.9787 124.798 33.24 125.283 33.24H133.067L131.611 40.8H122.539Z" fill="white"/>
<path d="M143.628 35.76L142.9 40.8H134.724L142.06 0.199997H150.74L158.076 40.8H149.9L149.172 35.76H143.628ZM144.524 29.32H148.276L146.428 14.928L144.524 29.32Z" fill="white"/>
<path d="M168.409 7.312V21.312H172.385C172.908 21.312 173.169 21.032 173.169 20.472V8.152C173.169 7.592 172.908 7.312 172.385 7.312H168.409ZM181.177 24.28C181.177 25.176 180.86 25.9973 180.225 26.744C179.628 27.4907 178.732 27.864 177.537 27.864L181.793 40.8H173.393L169.473 27.864H168.409V40.8H160.289V0.199997H175.689C177.593 0.199997 178.974 0.68533 179.833 1.65599C180.729 2.58933 181.177 3.85866 181.177 5.464V24.28Z" fill="white"/>
</svg>
